<svg width="40" height="78" viewBox="0 0 40 78" fill="none" xmlns="http://www.w3.org/2000/svg">
<path d="M38.4704 1.69513C39.4498 2.78084 40 4.25319 40 5.78839C40 7.32359 39.4498 8.79594 38.4704 9.88166L12.6103 38.5403L38.4704 67.199C39.422 68.2909 39.9486 69.7534 39.9367 71.2714C39.9248 72.7894 39.3754 74.2416 38.4068 75.315C37.4381 76.3884 36.1278 76.9973 34.758 77.0105C33.3883 77.0237 32.0686 76.4401 31.0833 75.3855L1.52959 42.6336C0.550196 41.5479 0 40.0755 0 38.5403C0 37.0051 0.550196 35.5328 1.52959 34.4471L31.0833 1.69513C32.063 0.609737 33.3916 0 34.7768 0C36.1621 0 37.4907 0.609737 38.4704 1.69513Z" fill="#111111"/>
</svg>
