<svg width="40" height="77" viewBox="0 0 40 77" fill="none" xmlns="http://www.w3.org/2000/svg">
<path d="M1.5296 1.68316C0.550197 2.76122 0 4.22318 0 5.74754C0 7.27191 0.550197 8.73387 1.5296 9.81193L27.3897 38.2683L1.5296 66.7248C0.577953 67.809 0.051374 69.2612 0.0632771 70.7685C0.0751802 72.2758 0.624612 73.7176 1.59323 74.7835C2.56186 75.8494 3.87217 76.454 5.24195 76.4671C6.61174 76.4802 7.9314 75.9007 8.91671 74.8535L38.4704 42.3327C39.4498 41.2547 40 39.7927 40 38.2683C40 36.744 39.4498 35.282 38.4704 34.204L8.91671 1.68316C7.93702 0.605434 6.60844 0 5.22315 0C3.83786 0 2.50929 0.605434 1.5296 1.68316Z" fill="#111111"/>
</svg>
